<?xml version="1.0" encoding="UTF-8"?>
<svg width="52px" height="56px" viewBox="0 0 52 56" version="1.1" xmlns="http://www.w3.org/2000/svg" xmlns:xlink="http://www.w3.org/1999/xlink">
    <!-- Generator: Sketch 54.1 (76490) - https://sketchapp.com -->
    <title>Group 2</title>
    <desc>Created with Sketch.</desc>
    <g id="Page-1" stroke="none" stroke-width="1" fill="none" fill-rule="evenodd" stroke-linecap="round" stroke-linejoin="round">
        <g id="Artboard-Copy-5" transform="translate(-670.000000, -552.000000)" stroke="#363434" stroke-width="4">
            <g id="Group-2" transform="translate(672.000000, 554.000000)">
                <path d="M24.0042614,0 L42.3272727,0 C45.4602335,0 48,2.55970829 48,5.71726849 C48,8.87482869 45.4602335,11.434537 42.3272727,11.434537 L5.67272727,11.434537 C2.53976651,11.434537 0,13.9942453 0,17.1518055 C0,20.3093657 2.53976651,22.869074 5.67272727,22.869074 L42.3272727,22.869074 C45.4602335,22.869074 48,25.4287823 48,28.5863425 C48,31.7439027 45.4602335,34.303611 42.3272727,34.303611 L34.2664773,34.303611 L29.7260742,34.303611 C26.5931135,34.303611 24.0533469,36.8633192 24.0533469,40.0208794 C24.0533469,42.1259196 24.0533469,46.1189598 24.0533469,52" id="Shape"></path>
                <polyline id="Path-3" points="19 48 24 52 29 48"></polyline>
            </g>
        </g>
    </g>
</svg>